<svg width="57" height="59" fill="none" xmlns="http://www.w3.org/2000/svg"><circle cx="28.5" cy="28.5" r="28.5" fill="#0F1C13"/><path d="M23.5 11.4c3.867-.267 7.283-.4 10.25-.4 8.233 0 12.35 2.75 12.35 8.25 0 2.067-.6 3.85-1.8 5.35-1.2 1.467-3.117 2.467-5.75 3 2.533.3 4.533 1.067 6 2.3 1.467 1.233 2.2 3.383 2.2 6.45 0 6.433-4.117 9.65-12.35 9.65H23.5V11.4Zm4.15 34.1h6.75c2.967 0 5.067-.767 6.3-2.3 1.267-1.567 1.9-3.95 1.9-7.15s-.633-5.333-1.9-6.4c-1.267-1.067-3.15-1.633-5.65-1.7h-7.4V45.5Zm6.1-34c-1.933 0-3.967.117-6.1.35v15.6h7.4c4.7-.2 7.05-2.9 7.05-8.1 0-2.533-.7-4.467-2.1-5.8-1.4-1.367-3.483-2.05-6.25-2.05Z" fill="#FCFAF9"/><path d="M33.4 11v.5H17.65v15h14.6v.5h-14.6v18.5H34.5v.5h-21V11h19.9Z" fill="#FCFAF9"/><path d="M23 11h4v35h-4V11ZM31 11h4v35h-4z" fill="#0F1C13"/><path d="M27 11h4v35h-4V11Z" fill="#fff"/></svg>